<?xml version="1.0" standalone="no"?>
<!DOCTYPE svg PUBLIC "-//W3C//DTD SVG 20010904//EN"
 "http://www.w3.org/TR/2001/REC-SVG-20010904/DTD/svg10.dtd">
<svg version="1.0" xmlns="http://www.w3.org/2000/svg"
 width="128.000000pt" height="128.000000pt" viewBox="0 0 128.000000 128.000000"
 preserveAspectRatio="xMidYMid meet">
<metadata>
Created by potrace 1.11, written by Peter Selinger 2001-2013
</metadata>
<g transform="translate(0.000000,128.000000) scale(0.100000,-0.100000)"
fill="#000000" stroke="none">
<path d="M610 1260 c-16 -16 -19 -32 -18 -102 0 -46 4 -93 9 -105 11 -30 45
-38 74 -19 24 16 25 21 25 115 0 82 -3 101 -18 114 -24 22 -48 21 -72 -3z"/>
<path d="M226 1131 c-11 -12 -15 -27 -11 -40 6 -21 99 -141 118 -153 24 -15
57 -8 72 16 22 33 15 46 -84 158 -37 42 -68 49 -95 19z"/>
<path d="M943 1064 c-66 -74 -74 -90 -60 -121 23 -51 62 -37 137 48 66 75 73
90 54 118 -29 41 -66 28 -131 -45z"/>
<path d="M547 896 c-100 -28 -191 -117 -221 -217 -10 -31 -13 -107 -12 -264
l1 -220 325 0 325 0 -1 235 0 235 -28 57 c-33 67 -98 131 -162 159 -57 26
-165 33 -227 15z"/>
<path d="M17 792 c-43 -47 -13 -77 100 -100 105 -22 136 -15 141 29 4 37 -23
55 -114 73 -102 20 -107 20 -127 -2z"/>
<path d="M1169 776 c-2 -2 -28 -7 -57 -10 -73 -9 -92 -20 -92 -56 0 -29 39
-68 57 -57 5 3 44 10 88 16 45 7 86 18 97 28 39 35 10 83 -51 83 -21 0 -40 -2
-42 -4z"/>
<path d="M586 152 c-353 -2 -360 -3 -383 -24 -28 -26 -30 -67 -4 -99 l19 -24
410 0 c389 0 411 1 431 19 25 23 28 77 5 100 -30 30 -49 32 -478 28z"/>
</g>
</svg>
